<svg xmlns="http://www.w3.org/2000/svg" data-name="Layer 1" width="841.4574584960938" height="405.0874328613281" style=""><rect id="backgroundrect" width="100%" height="100%" x="0" y="0" fill="none" stroke="none"/><g class="currentLayer" style=""><title>Layer 1</title><g id="e36d5192-81ed-4486-9dc7-3aabf5bf620f" data-name="Group 228" class=""><path id="eec6541e-7182-40d2-8839-37d6db66ade2" data-name="Path 3042" d="M561.3934245068359,138.45753643066405 l-0.272,-0.559 c-0.08300000000000002,-0.17 -8.228,-17.2 -3.6870000000000003,-33.986 s20.159,-27.387 20.315,-27.492 l0.516,-0.3450000000000001 l0.272,0.559 c0.08300000000000002,0.17 8.228,17.2 3.6870000000000003,33.986 s-20.16,27.388 -20.317,27.492 zm20.17707,-29.735 c3.04813,-14.31353 -18.187,-20.02561 -22.63278,-6.08277 q-0.24442000000000003,0.7665700000000001 -0.45731000000000005,1.55178 c-3.966,14.656 1.991,29.55 3.35,32.645 c2.734,-1.9889999999999999 15.385,-11.844 19.351,-26.5 h0 Q581.397904506836,109.53557643066404 581.570494506836,108.72253643066404 z" fill="#3f3d56"/><path id="a9014b65-d248-4059-8312-b45b24de232b" data-name="Path 3043" d="M540.389444506836,110.47953643066404 c4.541,16.787 20.1,27.183 20.1,27.183 s8.192,-16.82 3.6510000000000002,-33.607 s-20.1,-27.183 -20.1,-27.183 S535.8484345068359,93.69252643066409 540.389444506836,110.47953643066404 z" fill="#6c63ff"/><path id="ab25dc1f-49f0-4119-9b11-8880659579f8" data-name="Path 3044" d="M561.6404145068359,138.2225164306641 l-0.6200000000000001,-0.03400000000000001 c-0.18900000000000003,-0.010000000000000002 -19.028,-1.171 -31.491,-13.3 s-14.129,-30.933 -14.145,-31.122 l-0.05100000000000001,-0.6180000000000001 l0.6200000000000001,0.03400000000000001 c0.18900000000000003,0.010000000000000002 19.028,1.171 31.49,13.3 s14.13,30.933 14.145,31.122 zm-31.355,-14.109 c10.882,10.6 26.788,12.627 30.155,12.946 c-0.40900000000000003,-3.357 -2.869,-19.2 -13.752,-29.8 h0 q-0.5836500000000001,-0.5680000000000001 -1.18566,-1.10343 c-10.929359999999999,-9.73056 -26.28867,6.00075 -16.37587,16.76509 Q529.6903945068359,123.53315643066406 530.285374506836,124.11350643066407 z" fill="#3f3d56"/><path id="eb5ac145-5caa-4eb9-a8bf-cd04614f452d" data-name="Path 3045" d="M575.0284645068359,106.87152643066406 c-12.461,12.13 -13.983,30.777 -13.983,30.777 s18.681,-1.02 31.142,-13.15 s13.9859,-30.778 13.9859,-30.778 S587.4894645068359,94.74054643066404 575.0284645068359,106.87152643066406 z" fill="#3f3d56"/><circle id="fe2e9284-0c2b-4a15-b6a0-6b994e8a2442" data-name="Ellipse 585" cx="560.7854614257812" cy="65.97551727294922" r="8.12600040435791" fill="#6c63ff"/><path id="a86ae965-8410-4628-8d67-c8bdb55cc5ff" data-name="Rectangle 453" d="M546.0404345068359,134.31052643066408 h31 a14,14 0 0 1 14,14 h0 c0,7.732 -4.38188,35.7769 -12.11386,35.7769 l-38,1 c-7.732,0 -8.886140000000001,-29.04491 -8.886140000000001,-36.7769 h0 A14,14 0 0 1 546.0404345068359,134.31052643066408 z" fill="#e6e6e6"/></g><path d="M12.820684506835931,276.9117164306641 c-18.93571,-41.88446 -18.23752,-94.975 11.15,-130.31889 a211.78285,211.78285 0 0 0 75.80085,124.0819 c15.12988,11.94661 33.20189,23.65875 37.335,42.48841 c2.572,11.71622 -1.07351,24.10868 -7.37568,34.31445 c-6.30274,10.20612 -15.08781,18.60159 -23.773,26.87545 l-0.9744499999999999,2.83146 C67.19142450683594,351.01904643066405 31.75638450683593,318.7962164306641 12.820684506835931,276.9117164306641 z" fill="#f88975" id="svg_1"/><path d="M24.788674506835946,147.10390643066404 c-6.76319,37.03391 -1.7389100000000002,76.46829 14.69984,110.39831 c3.5540000000000003,7.33559 7.79769,14.46765 13.47937,20.36749 A44.70917,44.70917 0 0 0 73.26674450683595,289.7705164306641 c7.14748,2.08686 14.70025,3.39378 21.216,7.1817400000000005 c6.86792,3.9927200000000003 11.13011,10.69219 12.79049,18.375 c2.03151,9.40007 0.56428,18.9695 -1.19576,28.27773 c-1.9542000000000002,10.335 -4.14774,21.03892 -1.31593,31.428350000000002 c0.3431100000000001,1.2588300000000001 -1.63022,1.7176200000000001 -1.97281,0.46069 c-4.92686,-18.07583 4.65221,-35.90345 3.31326,-54.07673 c-0.6247800000000001,-8.48 -3.8089,-16.82307 -11.07989,-21.73631 c-6.35816,-4.29642 -14.14549,-5.650790000000001 -21.40073,-7.70123 c-7.61813,-2.153 -14.45973,-5.44172 -20.28143,-10.89692 c-5.95528,-5.58037 -10.48674,-12.56156 -14.21271,-19.77411 a175.61922,175.61922 0 0 1 -16.873,-52.231 a184.22752,184.22752 0 0 1 0.5984700000000001,-62.57164 c0.23363,-1.27927 2.16809,-0.6730000000000002 1.936,0.5979200000000001 z" fill="#fff" id="svg_2"/><path d="M33.563324506835926,246.75528643066406 a27.15836,27.15836 0 0 1 -32.4716,-13.503 c-0.5892200000000001,-1.1627 1.18987,-2.13293 1.77987,-0.9686900000000002 a25.148,25.148 0 0 0 30.231,12.49883 c1.2395,-0.40375 1.6931000000000003,1.57137 0.46069,1.97282 z" fill="#fff" id="svg_3"/><path d="M69.50328450683594,289.189716430664 a52.34553,52.34553 0 0 0 4.23431,-37.91218 c-0.33865000000000006,-1.26 1.6345800000000001,-1.71917 1.97281,-0.46069 a54.44727,54.44727 0 0 1 -4.48637,39.44211 c-0.6113500000000001,1.15425 -2.32878,0.07874000000000002 -1.7207500000000002,-1.06924 z" fill="#fff" id="svg_4"/><path d="M21.48851450683594,188.99698643066404 a15.373,15.373 0 0 0 12.04718,-8.22493 c0.5964200000000001,-1.1614200000000001 2.3132800000000002,-0.08463000000000002 1.7207500000000002,1.06924 a17.22661,17.22661 0 0 1 -13.30724,9.1285 a1.047,1.047 0 0 1 -1.21675,-0.7560600000000001 a1.01806,1.01806 0 0 1 0.7560600000000001,-1.21675 z" fill="#fff" id="svg_5"/><path d="M179.60148450683596,147.00312643066405 c-0.35178000000000004,0.7358000000000001 -0.70357,1.47161 -1.04715,2.22246 a202.45365,202.45365 0 0 0 -11.55665,30.74028 c-0.24593000000000004,0.81142 -0.48294000000000004,1.6374300000000002 -0.7050000000000001,2.45422 a213.43106,213.43106 0 0 0 -6.48339,78.3109 a207.26838,207.26838 0 0 0 5.62258,30.98629 c3.67061,14.04667 8.76812,28.98479 7.61787,43.01084 a35.5569,35.5569 0 0 1 -0.58152,4.36224 L108.51323450683594,378.1537164306641 c-0.18990000000000004,0.01584 -0.37164,0.04663000000000002 -0.56225,0.06290000000000001 L105.46874450683595,379.893026430664 c-0.17369,-0.515 -0.34276000000000006,-1.05288 -0.51644,-1.5678800000000002 c-0.10200000000000001,-0.2983200000000001 -0.18974000000000005,-0.60535 -0.29174,-0.9036700000000001 c-0.06348000000000001,-0.20164 -0.12631,-0.40380000000000005 -0.19512000000000002,-0.58213 c-0.021380000000000007,-0.06700000000000002 -0.04205000000000001,-0.13451000000000002 -0.05456000000000001,-0.18700000000000003 c-0.06881000000000001,-0.17833000000000002 -0.11380000000000001,-0.35128000000000004 -0.17369,-0.515 q-1.4300000000000002,-4.50593 -2.80173,-9.04764 c-0.00892,-0.014600000000000002 -0.00892,-0.014600000000000002 -0.003590000000000001,-0.037910000000000006 c-6.90882,-23.08818 -11.95083,-46.956 -13.20988,-70.83027 c-0.03764000000000001,-0.7183 -0.08492000000000002,-1.45078 -0.09334000000000002,-2.18692 a197.77973,197.77973 0 0 1 1.1148,-32.25648 a174.85065,174.85065 0 0 1 2.99416,-17.43623 A145.39737,145.39737 0 0 1 109.08174450683595,202.11740643066406 c15.54094,-26.12154 39.263,-46.98205 68.29588,-54.55729 C178.12046450683596,147.3668564306641 178.84974450683592,147.18177643066406 179.60148450683596,147.00312643066405 z" fill="#f88975" id="svg_6"/><path d="M179.95350450683594,147.90271643066404 c-27.697,25.49759 -47.42761,60.0087 -54.73041,96.99718 c-1.57885,7.99682 -2.4845,16.24636 -1.5001099999999998,24.37781 a44.70907,44.70907 0 0 0 9.04236,21.72342 c4.45043,5.96952 9.694,11.56031 12.615870000000001,18.50771 c3.07977,7.32293 2.4493400000000003,15.23822 -0.8504900000000001,22.37213 c-4.03744,8.72854 -10.9704,15.48581 -17.9799,21.85825 c-7.78271,7.07538 -15.97861,14.30118 -19.97273,24.3015 c-0.48394000000000004,1.21168 -2.33576,0.3899200000000001 -1.85255,-0.81993 c6.94908,-17.39886 25.33089,-25.86595 35.20338,-41.18243 c4.60669,-7.147 7.08746,-15.7255 4.24009,-24.02609 c-2.48989,-7.2585 -7.89221,-13.0284 -12.45061,-19.03372 c-4.7864,-6.30568 -8.269,-13.05066 -9.63289,-20.9114 c-1.39519,-8.0411 -0.81015,-16.34344 0.55733,-24.34555 a175.61909,175.61909 0 0 1 17.97458,-51.86226 A184.22734,184.22734 0 0 1 178.76774450683592,146.25965643066405 c0.9567500000000001,-0.8807700000000002 2.13628,0.7680000000000001 1.1857900000000001,1.6430000000000002 z" fill="#fff" id="svg_7"/><path d="M126.96256450683592,232.75164643066404 a27.15836,27.15836 0 0 1 -17.797,-30.3315 c0.22957000000000002,-1.2831000000000001 2.23422,-0.9866400000000001 2.00435,0.29816000000000004 a25.148,25.148 0 0 0 16.61263,28.180790000000002 c1.23276,0.42389000000000004 0.40577,2.274 -0.81993,1.85255 z" fill="#fff" id="svg_8"/><path d="M130.11015450683595,288.2714964306641 A52.34556,52.34556 0 0 0 156.31674450683596,260.55007643066403 c0.48822000000000004,-1.20992 2.34018,-0.38853000000000004 1.85255,0.8199400000000001 a54.44729,54.44729 0 0 1 -27.329,28.79121 c-1.18307,0.55353 -1.9068100000000001,-1.33921 -0.7301700000000001,-1.8897300000000001 z" fill="#fff" id="svg_9"/><path d="M152.09598450683592,179.36501643066407 a15.373,15.373 0 0 0 14.571,0.6860900000000002 c1.17547,-0.56825 1.8980000000000001,1.32518 0.7301700000000001,1.8897300000000001 a17.22665,17.22665 0 0 1 -16.12108,-0.7232700000000001 a1.047,1.047 0 0 1 -0.5163,-1.3362500000000002 a1.01806,1.01806 0 0 1 1.33624,-0.5163 z" fill="#fff" id="svg_10"/><path id="a084342b-ec68-4bf1-835e-e1a712a99507" data-name="Path 3068" d="M479.88341450683595,133.90451643066405 a10.52756,10.52756 0 0 0 -1.316,1.007 l-48.054,-12.251 l-3.278,-11.593 l-18.144,2.661 l3.809,21.088 a8.00007,8.00007 0 0 0 7.035,6.534 l56.111,5.909 a10.5,10.5 0 1 0 3.839,-13.355 z" fill="#ffb6b6"/><path id="b5ab2668-a5cc-41bf-8089-de1c0694ee81" data-name="Path 3070" d="M405.84843450683593,124.25151643066408 l12.38,10.68 l17.32,14.93 l7.65,-39.14 l0.8,-4.07 l0.6300000000000001,-3.23 l-17.55,-30.57 l-14.63,0.8400000000000001 l-1,0.06000000000000001 l-0.020000000000000004,0.22000000000000003 l-0.23,2.05 l-3,26.98 l-0.07,0.6500000000000001 z" fill="#e6e6e6"/><path id="a48a89e5-5415-44e6-8741-1c2f93951686" data-name="Path 3071" d="M486.76643450683594,391.92650643066406 h12.26 l5.833,-47.288 h-18.095 z" fill="#ffb6b6"/><path id="b4ab5075-ce23-46e9-939e-e287d4f4a486" data-name="Path 3073" d="M358.766464506836,392.92650643066406 h12.26 l5.833,-47.288 h-18.095 z" fill="#ffb6b6"/><path id="b77a2f94-428a-4b99-b464-6e051b4fe742" data-name="Path 3075" d="M348.96739450683594,372.10154643066403 l33,5 l48.01,-162.48 l50.99,163.48 l37,-5 l-48,-190 v-15 l-6.5,-22.5 l0.6800000000000002,-6.09 l4.73,-42.59 l2.05,-18.47 l0.133,-1.193 a4.056,4.056 0 0 0 -3.193,-4.417 h0 l-15.4,-3.24 h-25.1659 l-14.85,4.09 l-1.02,0.28 l-0.46,0.13 l0.23,1.92 l3.48,29.18 l0.19000000000000003,1.6 l3.36,28.13 l0.7400000000000001,6.17 c-29,21 -30,42 -30,42 z" fill="#2f2e41"/><circle id="b29dce1d-f666-44df-985a-547bf779e1a4" data-name="Ellipse 592" cx="442.9254150390625" cy="32.39051055908203" r="24.56100082397461" fill="#ffb6b6"/><rect id="a7f6a896-dcf1-4596-b70f-da8ad38f22ed" data-name="Rectangle 456" x="591.0012817382812" y="1071.651611328125" width="7" height="49" transform="rotate(-82.54900360107422 -25.737129211425994,706.5893554687498) " fill="#e76767" class="" fill-opacity="1"/><path id="bd729490-aac7-4879-a04d-c9e945275ef2" data-name="Path 3076" d="M530.883414506836,143.90451643066405 a10.52756,10.52756 0 0 0 -1.316,1.007 l-48.054,-12.251 l-3.278,-11.593 l-18.144,2.661 l3.809,21.088 a8.00007,8.00007 0 0 0 7.035,6.534 l56.111,5.909 a10.5,10.5 0 1 0 3.839,-13.355 z" fill="#ffb6b6"/><path id="b6be5ba1-6394-41ea-b0bb-2e259093a5f0" data-name="Path 3077" d="M456.96739450683594,79.10151643066405 l8.5,-6.5 c2.3,-0.8720000000000001 5.447,1.605 6,4 l12,49 l-25,18 l-3.5,-5.5 z" fill="#e6e6e6"/><path id="b6feaf63-857f-49b2-8f08-fe1d6a64856c" data-name="Path 3079" d="M461.74540450683594,12.055526430664088 c4.593,-0.5630000000000001 9.634,-0.16500000000000004 13.214,2.7670000000000003 s4.736,9.028 1.346,12.178 c-3,2.789 -7.6930000000000005,2.133 -11.713000000000001,2.926 a15.85394,15.85394 0 0 0 -12.384,15.157 c0.06000000000000001,10.174 9.824,17.879 11.578,27.9 c1.2,6.84 -1.6880000000000002,14.038 -6.675,18.87 s-11.843,7.443 -18.751,8.15 s-13.893,-0.37300000000000005 -20.606,-2.148 c-6.741,-1.782 -13.378,-4.311 -19.034,-8.388 s-10.293,-9.826 -12.109,-16.558 s-0.512,-14.451 4.168,-19.62 c5.359,-5.9190000000000005 14.274000000000001,-7.954 18.91,-14.456 c5.2,-7.288 3.273,-17.666 7.479,-25.567 c2.808,-5.275 8.125,-8.873 13.792,-10.769 s11.719,-2.27 17.692,-2.453 c3.14,-0.1 6.375,-0.129 9.3,1.016 s5.5,3.753 5.648,6.891 S461.74540450683594,12.055526430664088 461.74540450683594,12.055526430664088 z" fill="#2f2e41"/><path d="M187.5210145068359,403.7595264306641 H85.36965450683596 a6.89783,6.89783 0 0 1 -6.8896500000000005,-6.89062 v-63.6875 a23.06516,23.06516 0 0 1 23.03955,-23.03907 h86.00146 a6.89763,6.89763 0 0 1 6.8896500000000005,6.8896500000000005 v79.83692 A6.89783,6.89783 0 0 1 187.5210145068359,403.7595264306641 zm-86.00146,-91.61719 a21.0635,21.0635 0 0 0 -21.03955,21.03907 v63.6875 a4.89586,4.89586 0 0 0 4.8896500000000005,4.89062 H187.5210145068359 a4.89586,4.89586 0 0 0 4.8896500000000005,-4.89062 V317.0319864306641 a4.8950000000000005,4.8950000000000005 0 0 0 -4.8896500000000005,-4.8896500000000005 z" fill="#3f3d56" id="svg_11"/><path d="M104.89894450683596,314.67358643066405 a21.17332,21.17332 0 0 0 -21.14941,21.14942 v58.40527 a5.00588,5.00588 0 0 0 5,5 h95.39209 a5.00588,5.00588 0 0 0 5,-5 V319.67358643066405 a5.00589,5.00589 0 0 0 -5,-5 z" fill="#e76767" id="svg_12" class="" fill-opacity="1"/><path d="M143.79522450683595,333.7505164306641 h-14.166 a2.50264,2.50264 0 0 1 -2.5,-2.5 V308.17336643066403 h19.166 V331.2505164306641 A2.50263,2.50263 0 0 1 143.79522450683595,333.7505164306641 z" fill="#3f3d56" id="svg_13"/><path d="M711.1052845068359,288.37648643066404 l4.37353,-11.66113 l0.15674000000000005,-0.08984000000000002 l35.2378,-20.13575 a4.21144,4.21144 0 0 1 1.2172800000000001,-0.46191000000000004 a4.19508,4.19508 0 0 1 2.91357,7.76562 z" fill="#3f3d56" id="svg_14"/><path d="M581.521744506836,288.37648643066404 l-43.894,-24.58105 a4.19618,4.19618 0 0 1 2.91455,-7.76758 a4.20332,4.20332 0 0 1 1.2168,0.46191000000000004 l35.395,20.22559 z" fill="#3f3d56" id="svg_15"/><path id="a917e09e-7501-48ae-a084-2a300f5c05f4" data-name="Path 3060" d="M714.6074045068359,289.82451643066406 H578.0214445068359 l-11.488,-53.613 h159.562 z" fill="#3f3d56"/><path d="M719.105494506836,285.60229643066407 h-145.582 l-10.01416,-45.62207 a9.50851,9.50851 0 0 1 9.28662,-11.54687 H719.833514506836 a9.50788,9.50788 0 0 1 9.28614,11.54687 zm-143.97364,-2 H717.497094506836 l9.66943,-44.05175 a7.50707,7.50707 0 0 0 -7.333,-9.11719 H572.795924506836 a7.508,7.508 0 0 0 -7.3335,9.11816 z" fill="#3f3d56" id="svg_16" class=""/><path id="be148f51-17c4-4ec3-8125-b7d3e9443af6" data-name="Path 3061" d="M714.6074045068359,289.82451643066406 H578.0214445068359 l-11.488,-53.613 h159.562 z" opacity="0.1" style="isolation:isolate"/><path d="M713.284204506836,403.9099164306641 H579.3447445068359 a6.86064,6.86064 0 0 1 -6.853,-6.85254 V282.53296643066403 h147.6455 V397.057376430664 A6.8606300000000005,6.8606300000000005 0 0 1 713.284204506836,403.9099164306641 zM574.491744506836,284.53296643066403 V397.057376430664 a4.85834,4.85834 0 0 0 4.853,4.85254 H713.284204506836 a4.85834,4.85834 0 0 0 4.853,-4.85254 V284.53296643066403 z" fill="#3f3d56" id="svg_17"/><path d="M577.8836045068359,287.13234643066403 V393.8100864306641 a5.50654,5.50654 0 0 0 5.5,5.5 H709.2454245068359 a5.50654,5.50654 0 0 0 5.5,-5.5 V287.13234643066403 z" fill="#3f3d56" id="svg_18"/><path d="M726.5955145068359,236.71144643066407 h-160.562 v-0.5 A6.43511,6.43511 0 0 1 572.4612445068359,229.78371643066407 H720.1672945068359 a6.43553,6.43553 0 0 1 6.42822,6.42773 z" fill="#e76767" id="svg_19" class="" fill-opacity="1"/><path d="M221.80617450683593,332.9909764306641 A18.60745,18.60745 0 0 0 203.21974450683592,351.57690643066405 v42.65332 a5.00589,5.00589 0 0 0 5,5 h72.667 a5.00589,5.00589 0 0 0 5,-5 V337.9909764306641 a5.00589,5.00589 0 0 0 -5,-5 z" fill="#3f3d56" id="svg_20"/><path d="M297.1699445068359,328.7243664306641 H223.7246345068359 a7.037,7.037 0 0 1 -7.0293,-7.02832 V260.0466364306641 a7.03725,7.03725 0 0 1 7.0293,-7.0293 h65.54052 a21.16915,21.16915 0 0 1 21.14551,21.14551 v41.32129 A13.25553,13.25553 0 0 1 297.1699445068359,328.7243664306641 zm-73.44531,-73.707 a5.035,5.035 0 0 0 -5.0293,5.0293 v61.64941 a5.03475,5.03475 0 0 0 5.0293,5.02832 H297.1699445068359 a11.25292,11.25292 0 0 0 11.24072,-11.24023 V274.1628464306641 a19.16748,19.16748 0 0 0 -19.14551,-19.14551 z" fill="#3f3d56" id="svg_21"/><path d="M284.3813745068359,403.963626430664 H204.7246345068359 a7.037,7.037 0 0 1 -7.0293,-7.02832 v-48.0625 a20.639,20.639 0 0 1 20.61572,-20.61621 h66.07032 a7.03725,7.03725 0 0 1 7.02929,7.0293 v61.64941 A7.037,7.037 0 0 1 284.3813745068359,403.963626430664 zm-66.07032,-73.707 a18.637340000000002,18.637340000000002 0 0 0 -18.61572,18.61621 v48.0625 a5.03475,5.03475 0 0 0 5.0293,5.02832 h79.65674 a5.03475,5.03475 0 0 0 5.02929,-5.02832 V335.285896430664 a5.035,5.035 0 0 0 -5.02929,-5.0293 z" fill="#3f3d56" id="svg_22"/><path d="M227.21974450683592,257.7517164306641 a5.00589,5.00589 0 0 0 -5,5 v56.23926 a5.00589,5.00589 0 0 0 5,5 h66.45557 A11.22407,11.22407 0 0 0 304.88674450683595,312.779056430664 V276.86792643066406 A19.13789,19.13789 0 0 0 285.7700445068359,257.7517164306641 z" fill="#e6e6e6" id="svg_23"/><path d="M268.92461450683595,272.6274664306641 H258.6023545068359 a2.50263,2.50263 0 0 1 -2.5,-2.5 v-17.876 h15.32226 v17.876 A2.50263,2.50263 0 0 1 268.92461450683595,272.6274664306641 z" fill="#3f3d56" id="svg_24"/><path d="M486.260064506836,381.89386643066405 l14.66651,-0.8753900000000001 v6.28377 l13.94385,9.63012 a3.92508,3.92508 0 0 1 -2.23036,7.15506 h-17.461 l-3.00967,-6.21561 l-1.17513,6.21561 H484.41074450683595 z" fill="#2f2e41" id="svg_25"/><path d="M358.260064506836,381.89386643066405 l14.66651,-0.8753900000000001 v6.28377 l13.94385,9.63012 a3.92508,3.92508 0 0 1 -2.23036,7.15506 h-17.461 l-3.00967,-6.21561 l-1.17513,6.21561 H356.41074450683595 z" fill="#2f2e41" id="svg_26"/><path d="M109.92657450683595,384.6147664306641 H82.74932450683593 a1,1 0 0 1 0,-2 h27.17725 a1,1 0 1 1 0,2 z" fill="#3f3d56" id="svg_27"/><path d="M229.92657450683595,382.6147664306641 H202.74932450683593 a1,1 0 0 1 0,-2 h27.17725 a1,1 0 1 1 0,2 z" fill="#e76767" id="svg_28" class="" fill-opacity="1"/><path d="M605.9265745068359,375.0874264306641 H578.7493245068359 a1,1 0 0 1 0,-2 h27.17725 a1,1 0 0 1 0,2 z" fill="#e76767" id="svg_29" class="" fill-opacity="1"/><path d="M616.9265745068359,365.0874264306641 H589.7493245068359 a1,1 0 0 1 0,-2 h27.17725 a1,1 0 0 1 0,2 z" fill="#e76767" id="svg_30" class="" fill-opacity="1"/><path d="M565.9265745068359,171.08742643066404 H538.7493245068359 a1,1 0 0 1 0,-2 h27.17725 a1,1 0 0 1 0,2 z" fill="#e76767" id="svg_31" class="" fill-opacity="1"/><path d="M248.92657450683595,310.6147664306641 H221.74932450683593 a1,1 0 0 1 0,-2 h27.17725 a1,1 0 1 1 0,2 z" fill="#3f3d56" id="svg_32"/><path d="M248.92657450683595,302.6147664306641 H221.74932450683593 a1,1 0 0 1 0,-2 h27.17725 a1,1 0 1 1 0,2 z" fill="#3f3d56" id="svg_33"/><path d="M651.8751045068359,253.31478643066407 H641.552844506836 a2.50263,2.50263 0 0 1 -2.5,-2.5 v-17.876 h15.32226 v17.876 A2.50263,2.50263 0 0 1 651.8751045068359,253.31478643066407 z" fill="#e76767" id="svg_34" class="" fill-opacity="1"/><path d="M249.92461450683595,347.40971643066405 H239.60235450683592 a2.50263,2.50263 0 0 1 -2.5,-2.5 V327.0337164306641 h15.32226 v17.876 A2.50263,2.50263 0 0 1 249.92461450683595,347.40971643066405 z" fill="#e76767" id="svg_35" class="" fill-opacity="1"/><path fill="" fill-opacity="1" stroke="none" stroke-opacity="1" stroke-width="1" stroke-dasharray="none" stroke-linejoin="miter" stroke-linecap="butt" stroke-dashoffset="" fill-rule="nonzero" opacity="1" marker-start="" marker-mid="" marker-end="" id="svg_36" d="M545.2883593177046,95.27496660745703 " style="color: rgb(255, 161, 99);"/></g></svg>